<?xml version="1.0" encoding="UTF-8"?>
<svg id="Layer_2" data-name="Layer 2" xmlns="http://www.w3.org/2000/svg" viewBox="0 0 3791.88 628.52">
  <defs>
    <style>
      .cls-1 {
        fill: #121315;
      }

      .cls-1, .cls-2 {
        stroke-width: 0px;
      }

      .cls-2 {
        fill: #c73222;
      }
    </style>
  </defs>
  <g id="Layer_1-2" data-name="Layer 1">
    <g>
      <path class="cls-2" d="M230.25,246.5c-11.06-12.21-25.58-18.32-43.56-18.32-20.29,0-36.76,6.22-49.44,18.67-12.69,12.45-19.02,28.81-19.02,49.09v214.35H0V126.53h118.24v31.81c12.45-13.36,26.97-23.74,43.56-31.11,16.59-7.37,34.33-11.06,53.24-11.06,29.49,0,55.54,7.38,78.13,22.13,22.58,14.76,40.21,35.38,52.89,61.88,12.67,26.51,19.02,56.82,19.02,90.92v219.19h-118.24v-215.73c0-19.81-5.53-35.84-16.59-48.05Z"/>
      <path class="cls-2" d="M486.43,494.38c-31.12-17.98-55.78-42.4-73.99-73.29-18.22-30.88-27.31-65-27.31-102.33s8.99-71.45,26.97-102.33c17.98-30.88,42.63-55.32,73.98-73.29,31.34-17.98,65.69-26.97,103.02-26.97s70.75,8.99,101.64,26.97c30.88,17.98,55.32,42.42,73.29,73.29,17.98,30.89,26.96,65,26.96,102.33s-8.99,71.46-26.96,102.33c-17.98,30.89-42.42,55.32-73.29,73.29-30.89,17.98-64.77,26.97-101.64,26.97s-71.57-8.99-102.68-26.97ZM648.92,381.33c16.36-16.82,24.55-37.68,24.55-62.57s-8.19-45.74-24.55-62.58c-16.37-16.82-36.54-25.24-60.5-25.24s-44.15,8.42-60.5,25.24c-16.37,16.83-24.55,37.68-24.55,62.58s8.18,45.75,24.55,62.57c16.36,16.83,36.75,25.24,61.19,25.24s43.44-8.41,59.81-25.24Z"/>
      <path class="cls-2" d="M846.33,480.55c-22.59-26.27-33.88-65-33.88-116.16V46.33h117.55v80.21h68.45v109.94h-68.45v123.77c0,14.76,3.68,25.7,11.06,32.84,7.37,7.15,17.74,10.72,31.11,10.72h26.27v116.16h-35.95c-54.86,0-93.58-13.14-116.16-39.41Z"/>
      <path class="cls-1" d="M1299.92,479.17c-26.74,28.12-63.61,42.18-110.63,42.18-34.57,0-66.03-8.76-94.38-26.27-28.35-17.51-50.59-41.71-66.72-72.6-16.14-30.88-24.2-65.45-24.2-103.72s8.06-72.83,24.2-103.72c16.13-30.88,38.38-55.2,66.72-72.95,28.35-17.74,59.81-26.62,94.38-26.62,47.47,0,84.36,14.29,110.63,42.87V0h113.4v510.29h-113.4v-31.11ZM1270.53,382.02c16.82-16.82,25.24-37.91,25.24-63.27s-8.3-46.44-24.89-63.27c-16.59-16.82-37.34-25.24-62.23-25.24s-45.64,8.42-62.23,25.24c-16.59,16.83-24.89,37.92-24.89,63.27s8.4,46.44,25.24,63.27c16.82,16.83,37.45,25.24,61.88,25.24s45.05-8.41,61.88-25.24Z"/>
      <path class="cls-1" d="M1539.5,494.38c-31.11-17.98-55.78-42.4-73.98-73.29-18.22-30.88-27.31-65-27.31-102.33s8.99-71.45,26.97-102.33c17.98-30.88,42.63-55.32,73.98-73.29,31.34-17.98,65.69-26.97,103.03-26.97s70.75,8.99,101.64,26.97c30.88,17.98,55.32,42.42,73.29,73.29,17.98,30.89,26.97,65,26.97,102.33s-8.99,71.46-26.97,102.33c-17.98,30.89-42.42,55.32-73.29,73.29-30.89,17.98-64.77,26.97-101.64,26.97s-71.57-8.99-102.68-26.97ZM1701.99,381.33c16.36-16.82,24.55-37.68,24.55-62.57s-8.19-45.74-24.55-62.58c-16.37-16.82-36.54-25.24-60.5-25.24s-44.14,8.42-60.5,25.24c-16.37,16.83-24.55,37.68-24.55,62.58s8.18,45.75,24.55,62.57c16.36,16.83,36.76,25.24,61.19,25.24s43.44-8.41,59.81-25.24Z"/>
      <path class="cls-1" d="M2099.92,246.5c-11.06-12.21-25.58-18.32-43.56-18.32-20.29,0-36.77,6.22-49.44,18.67-12.68,12.45-19.02,28.81-19.02,49.09v214.35h-118.24V126.53h118.24v31.81c12.45-13.36,26.97-23.74,43.56-31.11,16.59-7.37,34.33-11.06,53.24-11.06,29.49,0,55.54,7.38,78.13,22.13,22.58,14.76,40.21,35.38,52.89,61.88,12.67,26.51,19.02,56.82,19.02,90.92v219.19h-118.24v-215.73c0-19.81-5.53-35.84-16.59-48.05Z"/>
      <path class="cls-1" d="M2356.1,494.38c-31.12-17.98-55.78-42.4-73.99-73.29-18.21-30.88-27.31-65-27.31-102.33s9.1-71.57,27.31-102.68c18.2-31.11,42.87-55.66,73.99-73.64,31.11-17.98,65.34-26.97,102.68-26.97s70.41,8.99,100.61,26.97c30.19,17.98,54.04,42.52,71.57,73.64,17.51,31.11,26.27,65.58,26.27,103.37,0,9.68-1.16,21.43-3.46,35.26h-286.26c6.45,20.74,17.98,37.34,34.57,49.78,16.59,12.45,35.49,18.67,56.7,18.67,18.43,0,34.23-3.34,47.36-10.03,13.14-6.68,22.93-16.47,29.39-29.39h114.09c-10.14,41.95-32.74,75.37-67.76,100.26-35.04,24.89-76.06,37.34-123.08,37.34-37.34,0-71.56-8.99-102.68-26.97ZM2546.59,281.42c-6.46-19.81-17.63-35.61-33.54-47.36-15.9-11.75-34-17.63-54.28-17.63s-39.88,5.88-56.01,17.63c-16.14,11.75-27.43,27.78-33.88,48.05l177.7-.69Z"/>
      <path class="cls-1" d="M2777.53,509.59l-145.2-383.06h123.77l83.66,241.31,83.67-241.31h124.46l-191.53,501.99h-130.68l51.86-118.93Z"/>
      <path class="cls-1" d="M3125.68,494.38c-31.12-17.98-55.78-42.4-73.99-73.29-18.21-30.88-27.31-65-27.31-102.33s9.1-71.57,27.31-102.68c18.2-31.11,42.87-55.66,73.99-73.64,31.11-17.98,65.34-26.97,102.68-26.97s70.41,8.99,100.61,26.97c30.18,17.98,54.04,42.52,71.57,73.64,17.51,31.11,26.27,65.58,26.27,103.37,0,9.68-1.16,21.43-3.46,35.26h-286.26c6.45,20.74,17.98,37.34,34.57,49.78,16.59,12.45,35.49,18.67,56.7,18.67,18.43,0,34.23-3.34,47.36-10.03,13.14-6.68,22.93-16.47,29.39-29.39h114.09c-10.14,41.95-32.74,75.37-67.76,100.26-35.04,24.89-76.06,37.34-123.08,37.34-37.34,0-71.57-8.99-102.68-26.97ZM3316.17,281.42c-6.46-19.81-17.63-35.61-33.54-47.36-15.9-11.75-34-17.63-54.28-17.63s-39.88,5.88-56.01,17.63c-16.14,11.75-27.43,27.78-33.88,48.05l177.7-.69Z"/>
      <path class="cls-1" d="M3481.42,480.55c-22.59-26.27-33.88-65-33.88-116.16V46.33h117.55v80.21h68.45v109.94h-68.45v123.77c0,14.76,3.68,25.7,11.06,32.84,7.37,7.15,17.74,10.72,31.11,10.72h26.28v116.16h-35.96c-54.86,0-93.58-13.14-116.16-39.41Z"/>
      <path class="cls-2" d="M3791.88,396.89v113.4h-123.77v-113.4h123.77Z"/>
    </g>
  </g>
</svg>